<mxfile host="app.diagrams.net" modified="2023-08-10T03:55:40.942Z" agent="Mozilla/5.0 (Windows NT 10.0; Win64; x64) AppleWebKit/537.36 (KHTML, like Gecko) Chrome/115.0.0.0 Safari/537.36" version="21.6.7" etag="vbV7navJyK0pWAKGzQ2t" type="github">
  <diagram name="Page-1" id="MUkywQxB3-nOTgb5WUTv">
    <mxGraphModel>
      <root>
        <mxCell id="0" />
        <mxCell id="1" parent="0" />
      </root>
    </mxGraphModel>
  </diagram>
</mxfile>
